<?xml version="1.0" standalone="no"?>
<!DOCTYPE svg PUBLIC "-//W3C//DTD SVG 20010904//EN"
 "http://www.w3.org/TR/2001/REC-SVG-20010904/DTD/svg10.dtd">
<svg version="1.0" xmlns="http://www.w3.org/2000/svg"
 width="300.000000pt" height="300.000000pt" viewBox="0 0 300.000000 300.000000"
 preserveAspectRatio="xMidYMid meet">
<metadata>
Created by potrace 1.11, written by Peter Selinger 2001-2013
</metadata>
<g transform="translate(0.000000,300.000000) scale(0.100000,-0.100000)"
fill="#000000" stroke="none">
<path d="M1745 2303 c-170 -10 -314 -41 -432 -94 -24 -11 -46 -19 -49 -19 -4
0 -33 -16 -65 -36 -64 -38 -169 -138 -169 -160 0 -8 -5 -14 -10 -14 -10 0 -57
-97 -64 -130 -2 -8 -7 -24 -12 -35 -5 -11 -9 -90 -9 -175 1 -146 3 -164 39
-305 21 -82 42 -155 47 -161 5 -6 7 -13 4 -16 -3 -3 11 -56 30 -119 19 -63 35
-121 35 -130 0 -26 40 -70 78 -86 19 -8 81 -17 138 -20 57 -3 101 -10 98 -15
-3 -4 -9 -6 -13 -4 -4 3 -34 -2 -67 -11 -32 -8 -66 -16 -74 -18 -35 -7 -109
-45 -133 -67 -14 -14 -31 -37 -36 -51 -6 -15 -17 -27 -25 -27 -20 0 -138 -51
-154 -67 -17 -17 -16 -17 -67 13 -25 14 -49 23 -54 20 -5 -3 -11 -1 -13 6 -5
15 -182 20 -218 6 -14 -5 -36 -12 -50 -15 -61 -11 -220 -121 -220 -152 0 -6
-4 -11 -8 -11 -13 0 -70 -121 -82 -172 -13 -56 -13 -153 1 -200 l10 -38 1399
0 1400 0 0 268 c0 147 -4 272 -8 277 -15 21 -145 77 -212 91 -42 9 -180 12
-180 5 0 -4 -16 -7 -36 -8 -51 -2 -176 -68 -229 -120 -25 -24 -45 -37 -45 -29
0 19 -48 122 -63 134 -23 19 -82 49 -112 57 -53 14 -60 16 -82 17 -14 0 -24 9
-27 23 -15 58 -125 93 -313 98 -64 2 -56 15 12 19 28 2 52 6 55 9 3 4 21 10
40 13 44 7 252 72 305 96 22 9 69 30 105 46 113 49 111 47 105 139 -9 127 -28
304 -40 365 -2 14 -6 46 -9 72 -3 26 -7 51 -9 55 -3 5 -8 35 -12 68 -13 104
-21 155 -45 262 -10 45 -15 84 -12 87 3 3 1 6 -5 6 -6 0 -14 21 -18 48 -16
115 -114 177 -315 200 -36 4 -83 6 -105 5z"/>
</g>
</svg>
